<svg width="600" height="400" xmlns="http://www.w3.org/2000/svg">
  <!-- Background -->
  <rect width="600" height="400" fill="#2C3E50"/>
  
  <!-- Floor -->
  <rect x="0" y="300" width="600" height="100" fill="#34495E"/>
  
  <!-- Back Wall -->
  <rect x="0" y="0" width="600" height="300" fill="#3498DB"/>
  
  <!-- Server Racks (Left) -->
  <rect x="50" y="120" width="80" height="180" fill="#1C2833" rx="5"/>
  <rect x="55" y="130" width="70" height="15" fill="#27AE60"/>
  <rect x="55" y="150" width="70" height="15" fill="#27AE60"/>
  <rect x="55" y="170" width="70" height="15" fill="#E74C3C"/>
  <rect x="55" y="190" width="70" height="15" fill="#27AE60"/>
  <rect x="55" y="210" width="70" height="15" fill="#27AE60"/>
  <rect x="55" y="230" width="70" height="15" fill="#F39C12"/>
  <rect x="55" y="250" width="70" height="15" fill="#27AE60"/>
  <rect x="55" y="270" width="70" height="15" fill="#27AE60"/>
  
  <!-- Server Racks (Right) -->
  <rect x="470" y="120" width="80" height="180" fill="#1C2833" rx="5"/>
  <rect x="475" y="130" width="70" height="15" fill="#27AE60"/>
  <rect x="475" y="150" width="70" height="15" fill="#27AE60"/>
  <rect x="475" y="170" width="70" height="15" fill="#27AE60"/>
  <rect x="475" y="190" width="70" height="15" fill="#F39C12"/>
  <rect x="475" y="210" width="70" height="15" fill="#27AE60"/>
  <rect x="475" y="230" width="70" height="15" fill="#27AE60"/>
  <rect x="475" y="250" width="70" height="15" fill="#E74C3C"/>
  <rect x="475" y="270" width="70" height="15" fill="#27AE60"/>
  
  <!-- Workstation -->
  <rect x="200" y="200" width="200" height="100" fill="#7F8C8D" rx="5"/>
  <rect x="210" y="180" width="180" height="25" fill="#2C3E50" rx="3"/>
  <rect x="220" y="185" width="160" height="15" fill="#3498DB"/>
  
  <!-- Monitor -->
  <rect x="240" y="140" width="120" height="80" fill="#1C2833" rx="3"/>
  <rect x="245" y="145" width="110" height="65" fill="#27AE60"/>
  <text x="300" y="180" font-family="monospace" font-size="12" fill="#FFFFFF" text-anchor="middle">AI LAB</text>
  <rect x="290" y="220" width="20" height="15" fill="#34495E"/>
  <ellipse cx="300" cy="235" rx="30" ry="5" fill="#34495E"/>
  
  <!-- Cables -->
  <path d="M 300 235 Q 300 260 90 280" stroke="#E74C3C" stroke-width="3" fill="none"/>
  <path d="M 300 235 Q 300 260 510 280" stroke="#3498DB" stroke-width="3" fill="none"/>
  
  <!-- Lights on ceiling -->
  <rect x="150" y="20" width="80" height="15" fill="#F1C40F" opacity="0.8"/>
  <rect x="370" y="20" width="80" height="15" fill="#F1C40F" opacity="0.8"/>
  
  <!-- Title -->
  <rect x="150" y="350" width="300" height="40" fill="#FFFFFF" rx="5"/>
  <text x="300" y="375" font-family="Arial, sans-serif" font-size="20" font-weight="bold" text-anchor="middle" fill="#2C3E50">Phòng Lab AI</text>
</svg>
