<svg width="400" height="400" xmlns="http://www.w3.org/2000/svg">
  <!-- Background -->
  <rect width="400" height="400" fill="#F39C12"/>
  
  <!-- Face -->
  <circle cx="200" cy="160" r="70" fill="#FFD4A3"/>
  
  <!-- Hair (Bob cut) -->
  <path d="M 130 120 Q 130 80 200 80 Q 270 80 270 120 L 270 160 Q 270 180 250 180 L 150 180 Q 130 180 130 160 Z" fill="#D35400"/>
  
  <!-- Eyes -->
  <circle cx="180" cy="155" r="8" fill="#2C3E50"/>
  <circle cx="220" cy="155" r="8" fill="#2C3E50"/>
  <circle cx="182" cy="153" r="3" fill="#FFFFFF"/>
  <circle cx="222" cy="153" r="3" fill="#FFFFFF"/>
  
  <!-- Eyelashes -->
  <path d="M 175 145 L 173 140" stroke="#2C3E50" stroke-width="2"/>
  <path d="M 180 143 L 180 138" stroke="#2C3E50" stroke-width="2"/>
  <path d="M 185 145 L 187 140" stroke="#2C3E50" stroke-width="2"/>
  <path d="M 215 145 L 213 140" stroke="#2C3E50" stroke-width="2"/>
  <path d="M 220 143 L 220 138" stroke="#2C3E50" stroke-width="2"/>
  <path d="M 225 145 L 227 140" stroke="#2C3E50" stroke-width="2"/>
  
  <!-- Nose -->
  <path d="M 200 165 L 195 180 L 205 180 Z" fill="#E6B88A"/>
  
  <!-- Smile -->
  <path d="M 180 190 Q 200 200 220 190" stroke="#E67E22" stroke-width="3" fill="none" stroke-linecap="round"/>
  
  <!-- Body/Blazer -->
  <rect x="130" y="230" width="140" height="170" fill="#16A085" rx="10"/>
  <rect x="180" y="230" width="40" height="170" fill="#FFFFFF"/>
  
  <!-- Necklace -->
  <circle cx="200" cy="235" r="6" fill="#F1C40F"/>
  
  <!-- Name Badge -->
  <rect x="100" y="320" width="200" height="60" fill="#FFFFFF" rx="5"/>
  <text x="200" y="345" font-family="Arial, sans-serif" font-size="20" font-weight="bold" text-anchor="middle" fill="#2C3E50">TS. Phạm Thị D</text>
  <text x="200" y="365" font-family="Arial, sans-serif" font-size="14" text-anchor="middle" fill="#7F8C8D">Chuyên gia NLP</text>
</svg>
