<svg width="400" height="400" xmlns="http://www.w3.org/2000/svg">
  <!-- Background -->
  <rect width="400" height="400" fill="#E74C3C"/>
  
  <!-- Face -->
  <circle cx="200" cy="160" r="70" fill="#FFD4A3"/>
  
  <!-- Hair (Long) -->
  <ellipse cx="200" cy="120" rx="80" ry="60" fill="#8B4513"/>
  <path d="M 120 140 Q 120 200 130 240" stroke="#8B4513" stroke-width="25" fill="none"/>
  <path d="M 280 140 Q 280 200 270 240" stroke="#8B4513" stroke-width="25" fill="none"/>
  
  <!-- Eyes -->
  <circle cx="180" cy="155" r="8" fill="#2C3E50"/>
  <circle cx="220" cy="155" r="8" fill="#2C3E50"/>
  <circle cx="182" cy="153" r="3" fill="#FFFFFF"/>
  <circle cx="222" cy="153" r="3" fill="#FFFFFF"/>
  
  <!-- Eyelashes -->
  <path d="M 175 145 L 173 140" stroke="#2C3E50" stroke-width="2"/>
  <path d="M 180 143 L 180 138" stroke="#2C3E50" stroke-width="2"/>
  <path d="M 185 145 L 187 140" stroke="#2C3E50" stroke-width="2"/>
  <path d="M 215 145 L 213 140" stroke="#2C3E50" stroke-width="2"/>
  <path d="M 220 143 L 220 138" stroke="#2C3E50" stroke-width="2"/>
  <path d="M 225 145 L 227 140" stroke="#2C3E50" stroke-width="2"/>
  
  <!-- Nose -->
  <path d="M 200 165 L 195 180 L 205 180 Z" fill="#E6B88A"/>
  
  <!-- Smile -->
  <path d="M 180 190 Q 200 200 220 190" stroke="#C0392B" stroke-width="3" fill="none" stroke-linecap="round"/>
  
  <!-- Body/Dress -->
  <rect x="130" y="230" width="140" height="170" fill="#9B59B6" rx="10"/>
  <circle cx="200" cy="250" r="8" fill="#FFFFFF"/>
  <circle cx="200" cy="280" r="8" fill="#FFFFFF"/>
  <circle cx="200" cy="310" r="8" fill="#FFFFFF"/>
  
  <!-- Name Badge -->
  <rect x="100" y="320" width="200" height="60" fill="#FFFFFF" rx="5"/>
  <text x="200" y="345" font-family="Arial, sans-serif" font-size="20" font-weight="bold" text-anchor="middle" fill="#2C3E50">TS. Trần Thị B</text>
  <text x="200" y="365" font-family="Arial, sans-serif" font-size="14" text-anchor="middle" fill="#7F8C8D">Chuyên gia ML</text>
</svg>
