<svg width="400" height="400" xmlns="http://www.w3.org/2000/svg">
  <!-- Background -->
  <rect width="400" height="400" fill="#16A085"/>
  
  <!-- Face -->
  <circle cx="200" cy="160" r="70" fill="#FFD4A3"/>
  
  <!-- Hair (Ponytail) -->
  <ellipse cx="200" cy="110" rx="75" ry="55" fill="#2C3E50"/>
  <ellipse cx="250" cy="140" rx="30" ry="50" fill="#2C3E50"/>
  
  <!-- Eyes -->
  <circle cx="180" cy="155" r="8" fill="#2C3E50"/>
  <circle cx="220" cy="155" r="8" fill="#2C3E50"/>
  <circle cx="182" cy="153" r="3" fill="#FFFFFF"/>
  <circle cx="222" cy="153" r="3" fill="#FFFFFF"/>
  
  <!-- Eyelashes -->
  <path d="M 175 145 L 173 140" stroke="#2C3E50" stroke-width="2"/>
  <path d="M 180 143 L 180 138" stroke="#2C3E50" stroke-width="2"/>
  <path d="M 185 145 L 187 140" stroke="#2C3E50" stroke-width="2"/>
  <path d="M 215 145 L 213 140" stroke="#2C3E50" stroke-width="2"/>
  <path d="M 220 143 L 220 138" stroke="#2C3E50" stroke-width="2"/>
  <path d="M 225 145 L 227 140" stroke="#2C3E50" stroke-width="2"/>
  
  <!-- Glasses -->
  <circle cx="180" cy="155" r="18" fill="none" stroke="#E74C3C" stroke-width="2"/>
  <circle cx="220" cy="155" r="18" fill="none" stroke="#E74C3C" stroke-width="2"/>
  <line x1="198" y1="155" x2="202" y2="155" stroke="#E74C3C" stroke-width="2"/>
  
  <!-- Nose -->
  <path d="M 200 165 L 195 180 L 205 180 Z" fill="#E6B88A"/>
  
  <!-- Smile -->
  <path d="M 180 190 Q 200 200 220 190" stroke="#C0392B" stroke-width="3" fill="none" stroke-linecap="round"/>
  
  <!-- Body/Blazer -->
  <rect x="130" y="230" width="140" height="170" fill="#E74C3C" rx="10"/>
  <rect x="180" y="230" width="40" height="170" fill="#FFFFFF"/>
  
  <!-- Scarf -->
  <path d="M 150 240 Q 200 250 250 240" stroke="#F39C12" stroke-width="15" fill="none"/>
  
  <!-- Name Badge -->
  <rect x="100" y="320" width="200" height="60" fill="#FFFFFF" rx="5"/>
  <text x="200" y="345" font-family="Arial, sans-serif" font-size="20" font-weight="bold" text-anchor="middle" fill="#2C3E50">TS. Võ Thị E</text>
  <text x="200" y="365" font-family="Arial, sans-serif" font-size="14" text-anchor="middle" fill="#7F8C8D">Chuyên gia Data Science</text>
</svg>
